<mxfile host="Electron" agent="Mozilla/5.0 (Windows NT 10.0; Win64; x64) AppleWebKit/537.36 (KHTML, like Gecko) draw.io/24.7.17 Chrome/128.0.6613.36 Electron/32.0.1 Safari/537.36" version="24.7.17">
  <diagram name="Page-1" id="rFN7BH7jZwcIQmPE8DE1">
    <mxGraphModel dx="1420" dy="870" grid="1" gridSize="10" guides="1" tooltips="1" connect="1" arrows="1" fold="1" page="1" pageScale="1" pageWidth="1700" pageHeight="1100" math="0" shadow="0">
      <root>
        <mxCell id="0" />
        <mxCell id="1" parent="0" />
        <mxCell id="NKDO169QcMg4LV9zWofI-16" value="" style="group" parent="1" vertex="1" connectable="0">
          <mxGeometry x="40" y="40" width="550" height="450" as="geometry" />
        </mxCell>
        <mxCell id="NKDO169QcMg4LV9zWofI-1" value="Browser" style="strokeWidth=1;shadow=0;dashed=0;align=center;html=1;shape=mxgraph.mockup.containers.window;align=left;verticalAlign=top;spacingLeft=8;strokeColor2=#008cff;strokeColor3=#c4c4c4;fontColor=#666666;mainText=;fontSize=17;labelBackgroundColor=none;whiteSpace=wrap;" parent="NKDO169QcMg4LV9zWofI-16" vertex="1">
          <mxGeometry width="550" height="450" as="geometry" />
        </mxCell>
        <mxCell id="NKDO169QcMg4LV9zWofI-2" value="" style="swimlane;shape=mxgraph.bootstrap.anchor;strokeColor=none;fillColor=none;fontColor=#666666;fontStyle=0;childLayout=stackLayout;horizontal=0;startSize=0;horizontalStack=1;resizeParent=1;resizeParentMax=0;resizeLast=0;collapsible=0;marginBottom=0;whiteSpace=wrap;html=1;perimeter=none;" parent="NKDO169QcMg4LV9zWofI-16" vertex="1">
          <mxGeometry x="256.66666666666663" y="42.45283018867924" width="283.2499999999999" height="25.471698113207545" as="geometry" />
        </mxCell>
        <mxCell id="NKDO169QcMg4LV9zWofI-3" value="&lt;blockquote style=&quot;margin: 0 0 0 40px; border: none; padding: 0px;&quot;&gt;&lt;font color=&quot;#00009a&quot;&gt;Home&lt;/font&gt;&lt;/blockquote&gt;" style="text;strokeColor=none;align=center;verticalAlign=middle;spacingLeft=0;spacingRight=10;overflow=hidden;points=[[0,0.5],[1,0.5]];portConstraint=eastwest;rotatable=0;whiteSpace=wrap;html=1;shape=mxgraph.mockup.leftButton;rSize=10;fillColor=none;fontColor=#ffffff;fontSize=17;fontStyle=1;" parent="NKDO169QcMg4LV9zWofI-2" vertex="1">
          <mxGeometry width="99.91666666666664" height="25.471698113207545" as="geometry" />
        </mxCell>
        <mxCell id="NKDO169QcMg4LV9zWofI-4" value="Aircraft" style="text;strokeColor=inherit;align=center;verticalAlign=middle;spacingLeft=10;spacingRight=10;overflow=hidden;points=[[0,0.5],[1,0.5]];portConstraint=eastwest;rotatable=0;whiteSpace=wrap;html=1;rSize=5;fillColor=inherit;fontColor=inherit;fontSize=17;fontStyle=1;" parent="NKDO169QcMg4LV9zWofI-2" vertex="1">
          <mxGeometry x="99.91666666666664" width="91.66666666666663" height="25.471698113207545" as="geometry" />
        </mxCell>
        <mxCell id="NKDO169QcMg4LV9zWofI-5" value="Contact" style="text;strokeColor=inherit;align=center;verticalAlign=middle;spacingLeft=10;spacingRight=10;overflow=hidden;points=[[0,0.5],[1,0.5]];portConstraint=eastwest;rotatable=0;whiteSpace=wrap;html=1;rSize=5;fillColor=inherit;fontColor=inherit;fontSize=17;fontStyle=1;" parent="NKDO169QcMg4LV9zWofI-2" vertex="1">
          <mxGeometry x="191.58333333333326" width="91.66666666666663" height="25.471698113207545" as="geometry" />
        </mxCell>
        <mxCell id="NKDO169QcMg4LV9zWofI-12" value="" style="group" parent="NKDO169QcMg4LV9zWofI-16" vertex="1" connectable="0">
          <mxGeometry x="64.16666666666666" y="94.68826907301067" width="412.5" height="169.81132075471697" as="geometry" />
        </mxCell>
        <mxCell id="NKDO169QcMg4LV9zWofI-9" value="" style="verticalLabelPosition=bottom;shadow=0;dashed=0;align=center;html=1;verticalAlign=top;strokeWidth=1;shape=mxgraph.mockup.navigation.coverFlow;strokeColor=#999999;" parent="NKDO169QcMg4LV9zWofI-12" vertex="1">
          <mxGeometry width="412.5000000000001" height="141.50943396226407" as="geometry" />
        </mxCell>
        <mxCell id="NKDO169QcMg4LV9zWofI-10" value="" style="verticalLabelPosition=bottom;shadow=0;dashed=0;align=center;html=1;verticalAlign=top;strokeWidth=1;shape=mxgraph.mockup.navigation.pageControl;fillColor=#999999;strokeColor=#ddeeff;" parent="NKDO169QcMg4LV9zWofI-12" vertex="1">
          <mxGeometry x="154.6875" y="148.58490566037736" width="103.12500000000003" height="21.22641509433962" as="geometry" />
        </mxCell>
        <mxCell id="NKDO169QcMg4LV9zWofI-11" value="&lt;font style=&quot;font-size: 16px;&quot;&gt;Featured Aircraft&lt;/font&gt;" style="text;strokeColor=none;fillColor=none;html=1;fontSize=24;fontStyle=1;verticalAlign=middle;align=center;" parent="NKDO169QcMg4LV9zWofI-12" vertex="1">
          <mxGeometry x="154.6875" y="56.6037735849057" width="103.12500000000003" height="28.30188679245285" as="geometry" />
        </mxCell>
        <mxCell id="NKDO169QcMg4LV9zWofI-13" value="&lt;font style=&quot;font-size: 11px;&quot;&gt;Lorem ipsum dolor sit amet, consectetur adipisicing elit, sed do eiusmod tempor incididunt ut labore et dolore magna aliqua. Ut enim ad minim veniam, quis nostrud exercitation ullamco laboris nisi ut aliquip ex ea commodo consequat. Duis aute irure dolor in reprehenderit in voluptate velit esse cillum dolore eu fugiat nulla pariatur. Excepteur sint occaecat cupidatat non proident, sunt in culpa qui officia deserunt mollit anim id est laborum.&lt;/font&gt;&lt;div style=&quot;font-size: 11px;&quot;&gt;&lt;font style=&quot;font-size: 11px;&quot;&gt;&lt;br&gt;&lt;/font&gt;&lt;/div&gt;&lt;div style=&quot;font-size: 11px;&quot;&gt;&lt;font style=&quot;font-size: 11px;&quot;&gt;Duis aute irure dolor in reprehenderit in voluptate velit esse cillum dolore eu fugiat nulla pariatur. Excepteur sint occaecat cupidatat non proident, sunt in culpa qui officia deserunt mollit anim id est laborum.&lt;/font&gt;&lt;br&gt;&lt;/div&gt;" style="text;spacingTop=-5;whiteSpace=wrap;html=1;align=left;fontSize=12;fontFamily=Helvetica;fillColor=none;strokeColor=none;" parent="NKDO169QcMg4LV9zWofI-16" vertex="1">
          <mxGeometry x="68.75" y="297.1698113207547" width="412.5" height="135.84905660377356" as="geometry" />
        </mxCell>
        <mxCell id="NKDO169QcMg4LV9zWofI-14" value="&lt;font style=&quot;font-size: 16px;&quot;&gt;Welcome&lt;/font&gt;" style="text;strokeColor=none;fillColor=none;html=1;fontSize=24;fontStyle=1;verticalAlign=middle;align=center;" parent="NKDO169QcMg4LV9zWofI-16" vertex="1">
          <mxGeometry x="72.68" y="271.7" width="67.32" height="25.47" as="geometry" />
        </mxCell>
        <mxCell id="NKDO169QcMg4LV9zWofI-23" value="" style="group" parent="NKDO169QcMg4LV9zWofI-16" vertex="1" connectable="0">
          <mxGeometry x="18.333333333333325" y="33.96226415094339" width="100.8333333333333" height="42.45283018867924" as="geometry" />
        </mxCell>
        <mxCell id="NKDO169QcMg4LV9zWofI-7" value="" style="verticalLabelPosition=bottom;shadow=0;dashed=0;align=center;html=1;verticalAlign=top;strokeWidth=1;shape=mxgraph.mockup.graphics.simpleIcon;strokeColor=#999999;" parent="NKDO169QcMg4LV9zWofI-23" vertex="1">
          <mxGeometry width="100.8333333333333" height="42.45283018867924" as="geometry" />
        </mxCell>
        <mxCell id="NKDO169QcMg4LV9zWofI-8" value="&lt;font style=&quot;font-size: 16px;&quot;&gt;Logo&lt;/font&gt;" style="text;strokeColor=none;fillColor=none;html=1;fontSize=24;fontStyle=1;verticalAlign=middle;align=center;" parent="NKDO169QcMg4LV9zWofI-23" vertex="1">
          <mxGeometry x="4.583333333333333" y="4.245283018867919" width="91.66666666666664" height="33.96226415094339" as="geometry" />
        </mxCell>
        <mxCell id="NKDO169QcMg4LV9zWofI-63" value="" style="rounded=1;whiteSpace=wrap;html=1;shadow=0;fillColor=none;strokeColor=#ff0000;" parent="NKDO169QcMg4LV9zWofI-16" vertex="1">
          <mxGeometry x="362" y="36.420000000000016" width="83" height="34" as="geometry" />
        </mxCell>
        <mxCell id="NKDO169QcMg4LV9zWofI-31" value="" style="group" parent="1" vertex="1" connectable="0">
          <mxGeometry x="40" y="520" width="550" height="520" as="geometry" />
        </mxCell>
        <mxCell id="NKDO169QcMg4LV9zWofI-32" value="Browser" style="strokeWidth=1;shadow=0;dashed=0;align=center;html=1;shape=mxgraph.mockup.containers.window;align=left;verticalAlign=top;spacingLeft=8;strokeColor2=#008cff;strokeColor3=#c4c4c4;fontColor=#666666;mainText=;fontSize=17;labelBackgroundColor=none;whiteSpace=wrap;" parent="NKDO169QcMg4LV9zWofI-31" vertex="1">
          <mxGeometry width="550" height="520" as="geometry" />
        </mxCell>
        <mxCell id="NKDO169QcMg4LV9zWofI-33" value="" style="swimlane;shape=mxgraph.bootstrap.anchor;strokeColor=none;fillColor=none;fontColor=#666666;fontStyle=0;childLayout=stackLayout;horizontal=0;startSize=0;horizontalStack=1;resizeParent=1;resizeParentMax=0;resizeLast=0;collapsible=0;marginBottom=0;whiteSpace=wrap;html=1;perimeter=none;" parent="NKDO169QcMg4LV9zWofI-31" vertex="1">
          <mxGeometry x="256.66666666666663" y="42.45283018867924" width="283.24999999999994" height="25.471698113207545" as="geometry" />
        </mxCell>
        <mxCell id="NKDO169QcMg4LV9zWofI-34" value="&lt;blockquote style=&quot;margin: 0 0 0 40px; border: none; padding: 0px;&quot;&gt;&lt;font color=&quot;#666666&quot;&gt;Home&lt;/font&gt;&lt;/blockquote&gt;" style="text;strokeColor=none;align=center;verticalAlign=middle;spacingLeft=0;spacingRight=10;overflow=hidden;points=[[0,0.5],[1,0.5]];portConstraint=eastwest;rotatable=0;whiteSpace=wrap;html=1;shape=mxgraph.mockup.leftButton;rSize=10;fillColor=none;fontColor=#ffffff;fontSize=17;fontStyle=1;" parent="NKDO169QcMg4LV9zWofI-33" vertex="1">
          <mxGeometry width="99.91666666666666" height="25.471698113207545" as="geometry" />
        </mxCell>
        <mxCell id="NKDO169QcMg4LV9zWofI-35" value="&lt;font color=&quot;#00009a&quot;&gt;Aircraft&lt;/font&gt;" style="text;strokeColor=inherit;align=center;verticalAlign=middle;spacingLeft=10;spacingRight=10;overflow=hidden;points=[[0,0.5],[1,0.5]];portConstraint=eastwest;rotatable=0;whiteSpace=wrap;html=1;rSize=5;fillColor=inherit;fontColor=inherit;fontSize=17;fontStyle=1;" parent="NKDO169QcMg4LV9zWofI-33" vertex="1">
          <mxGeometry x="99.91666666666666" width="91.66666666666664" height="25.471698113207545" as="geometry" />
        </mxCell>
        <mxCell id="NKDO169QcMg4LV9zWofI-36" value="Contact" style="text;strokeColor=inherit;align=center;verticalAlign=middle;spacingLeft=10;spacingRight=10;overflow=hidden;points=[[0,0.5],[1,0.5]];portConstraint=eastwest;rotatable=0;whiteSpace=wrap;html=1;rSize=5;fillColor=inherit;fontColor=inherit;fontSize=17;fontStyle=1;" parent="NKDO169QcMg4LV9zWofI-33" vertex="1">
          <mxGeometry x="191.58333333333331" width="91.66666666666664" height="25.471698113207545" as="geometry" />
        </mxCell>
        <mxCell id="NKDO169QcMg4LV9zWofI-43" value="" style="group" parent="NKDO169QcMg4LV9zWofI-31" vertex="1" connectable="0">
          <mxGeometry x="18.33333333333333" y="33.96226415094339" width="100.83333333333331" height="42.45283018867924" as="geometry" />
        </mxCell>
        <mxCell id="NKDO169QcMg4LV9zWofI-44" value="" style="verticalLabelPosition=bottom;shadow=0;dashed=0;align=center;html=1;verticalAlign=top;strokeWidth=1;shape=mxgraph.mockup.graphics.simpleIcon;strokeColor=#999999;" parent="NKDO169QcMg4LV9zWofI-43" vertex="1">
          <mxGeometry width="100.83333333333331" height="42.45283018867924" as="geometry" />
        </mxCell>
        <mxCell id="NKDO169QcMg4LV9zWofI-45" value="&lt;font style=&quot;font-size: 16px;&quot;&gt;Logo&lt;/font&gt;" style="text;strokeColor=none;fillColor=none;html=1;fontSize=24;fontStyle=1;verticalAlign=middle;align=center;" parent="NKDO169QcMg4LV9zWofI-43" vertex="1">
          <mxGeometry x="4.583333333333334" y="4.245283018867919" width="91.66666666666666" height="33.96226415094339" as="geometry" />
        </mxCell>
        <mxCell id="NKDO169QcMg4LV9zWofI-86" value="&lt;font style=&quot;font-size: 16px;&quot;&gt;Available Aircraft&lt;/font&gt;" style="text;strokeColor=none;fillColor=none;html=1;fontSize=24;fontStyle=1;verticalAlign=middle;align=center;" parent="NKDO169QcMg4LV9zWofI-31" vertex="1">
          <mxGeometry x="40" y="98" width="130" height="25.47" as="geometry" />
        </mxCell>
        <mxCell id="NKDO169QcMg4LV9zWofI-88" value="" style="group" parent="NKDO169QcMg4LV9zWofI-31" vertex="1" connectable="0">
          <mxGeometry x="40" y="142" width="489" height="110" as="geometry" />
        </mxCell>
        <mxCell id="NKDO169QcMg4LV9zWofI-41" value="&lt;div style=&quot;&quot;&gt;&lt;span style=&quot;font-size: 11px;&quot;&gt;Curae mollis posuere laoreet netus sollicitudin. Sollicitudin leo non fames magnis tortor felis ultrices sed. Vulputate scelerisque a aenean, nullam a inceptos.&lt;/span&gt;&lt;br&gt;&lt;/div&gt;&lt;div style=&quot;&quot;&gt;&lt;span style=&quot;font-size: 11px;&quot;&gt;&lt;br&gt;&lt;/span&gt;&lt;/div&gt;&lt;div style=&quot;&quot;&gt;&lt;span style=&quot;font-size: 11px;&quot;&gt;Nibh morbi et eu tempor molestie. Interdum consequat dolor nullam consequat malesuada malesuada purus convallis. Vestibulum non fermentum erat eu molestie placerat natoque tempus.&lt;/span&gt;&lt;br&gt;&lt;/div&gt;" style="text;spacingTop=-5;whiteSpace=wrap;html=1;align=left;fontSize=12;fontFamily=Helvetica;fillColor=none;strokeColor=none;" parent="NKDO169QcMg4LV9zWofI-88" vertex="1">
          <mxGeometry x="88.17000000000002" y="20" width="400.83" height="90" as="geometry" />
        </mxCell>
        <mxCell id="NKDO169QcMg4LV9zWofI-42" value="Aircraft Name" style="text;strokeColor=none;fillColor=none;html=1;fontSize=12;fontStyle=1;verticalAlign=middle;align=left;spacing=0;" parent="NKDO169QcMg4LV9zWofI-88" vertex="1">
          <mxGeometry x="91.17000000000002" width="91.67" height="20" as="geometry" />
        </mxCell>
        <mxCell id="NKDO169QcMg4LV9zWofI-85" value="" style="verticalLabelPosition=bottom;shadow=0;dashed=0;align=center;html=1;verticalAlign=top;strokeWidth=1;shape=mxgraph.mockup.graphics.simpleIcon;strokeColor=#999999;" parent="NKDO169QcMg4LV9zWofI-88" vertex="1">
          <mxGeometry y="4" width="80" height="80" as="geometry" />
        </mxCell>
        <mxCell id="NKDO169QcMg4LV9zWofI-89" value="" style="group" parent="NKDO169QcMg4LV9zWofI-31" vertex="1" connectable="0">
          <mxGeometry x="40" y="262" width="489" height="110" as="geometry" />
        </mxCell>
        <mxCell id="NKDO169QcMg4LV9zWofI-90" value="&lt;div style=&quot;&quot;&gt;&lt;span style=&quot;font-size: 11px;&quot;&gt;Curae mollis posuere laoreet netus sollicitudin. Sollicitudin leo non fames magnis tortor felis ultrices sed. Vulputate scelerisque a aenean, nullam a inceptos.&lt;/span&gt;&lt;br&gt;&lt;/div&gt;&lt;div style=&quot;&quot;&gt;&lt;span style=&quot;font-size: 11px;&quot;&gt;&lt;br&gt;&lt;/span&gt;&lt;/div&gt;&lt;div style=&quot;&quot;&gt;&lt;span style=&quot;font-size: 11px;&quot;&gt;Nibh morbi et eu tempor molestie. Interdum consequat dolor nullam consequat malesuada malesuada purus convallis. Vestibulum non fermentum erat eu molestie placerat natoque tempus.&lt;/span&gt;&lt;br&gt;&lt;/div&gt;" style="text;spacingTop=-5;whiteSpace=wrap;html=1;align=left;fontSize=12;fontFamily=Helvetica;fillColor=none;strokeColor=none;" parent="NKDO169QcMg4LV9zWofI-89" vertex="1">
          <mxGeometry x="88.17000000000002" y="20" width="400.83" height="90" as="geometry" />
        </mxCell>
        <mxCell id="NKDO169QcMg4LV9zWofI-91" value="Aircraft Name" style="text;strokeColor=none;fillColor=none;html=1;fontSize=12;fontStyle=1;verticalAlign=middle;align=left;spacing=0;" parent="NKDO169QcMg4LV9zWofI-89" vertex="1">
          <mxGeometry x="91.17000000000002" width="91.67" height="20" as="geometry" />
        </mxCell>
        <mxCell id="NKDO169QcMg4LV9zWofI-92" value="" style="verticalLabelPosition=bottom;shadow=0;dashed=0;align=center;html=1;verticalAlign=top;strokeWidth=1;shape=mxgraph.mockup.graphics.simpleIcon;strokeColor=#999999;" parent="NKDO169QcMg4LV9zWofI-89" vertex="1">
          <mxGeometry y="4" width="80" height="80" as="geometry" />
        </mxCell>
        <mxCell id="NKDO169QcMg4LV9zWofI-94" value="" style="group" parent="NKDO169QcMg4LV9zWofI-31" vertex="1" connectable="0">
          <mxGeometry x="40" y="384" width="489" height="110" as="geometry" />
        </mxCell>
        <mxCell id="NKDO169QcMg4LV9zWofI-95" value="&lt;div style=&quot;&quot;&gt;&lt;span style=&quot;font-size: 11px;&quot;&gt;Curae mollis posuere laoreet netus sollicitudin. Sollicitudin leo non fames magnis tortor felis ultrices sed. Vulputate scelerisque a aenean, nullam a inceptos.&lt;/span&gt;&lt;br&gt;&lt;/div&gt;&lt;div style=&quot;&quot;&gt;&lt;span style=&quot;font-size: 11px;&quot;&gt;&lt;br&gt;&lt;/span&gt;&lt;/div&gt;&lt;div style=&quot;&quot;&gt;&lt;span style=&quot;font-size: 11px;&quot;&gt;Nibh morbi et eu tempor molestie. Interdum consequat dolor nullam consequat malesuada malesuada purus convallis. Vestibulum non fermentum erat eu molestie placerat natoque tempus.&lt;/span&gt;&lt;br&gt;&lt;/div&gt;" style="text;spacingTop=-5;whiteSpace=wrap;html=1;align=left;fontSize=12;fontFamily=Helvetica;fillColor=none;strokeColor=none;" parent="NKDO169QcMg4LV9zWofI-94" vertex="1">
          <mxGeometry x="88.17000000000002" y="20" width="400.83" height="90" as="geometry" />
        </mxCell>
        <mxCell id="NKDO169QcMg4LV9zWofI-96" value="Aircraft Name" style="text;strokeColor=none;fillColor=none;html=1;fontSize=12;fontStyle=1;verticalAlign=middle;align=left;spacing=0;" parent="NKDO169QcMg4LV9zWofI-94" vertex="1">
          <mxGeometry x="91.17000000000002" width="91.67" height="20" as="geometry" />
        </mxCell>
        <mxCell id="NKDO169QcMg4LV9zWofI-97" value="" style="verticalLabelPosition=bottom;shadow=0;dashed=0;align=center;html=1;verticalAlign=top;strokeWidth=1;shape=mxgraph.mockup.graphics.simpleIcon;strokeColor=#999999;" parent="NKDO169QcMg4LV9zWofI-94" vertex="1">
          <mxGeometry y="4" width="80" height="80" as="geometry" />
        </mxCell>
        <mxCell id="NKDO169QcMg4LV9zWofI-46" value="" style="group" parent="1" vertex="1" connectable="0">
          <mxGeometry x="720" y="40" width="565" height="450" as="geometry" />
        </mxCell>
        <mxCell id="NKDO169QcMg4LV9zWofI-47" value="Browser" style="strokeWidth=1;shadow=0;dashed=0;align=center;html=1;shape=mxgraph.mockup.containers.window;align=left;verticalAlign=top;spacingLeft=8;strokeColor2=#008cff;strokeColor3=#c4c4c4;fontColor=#666666;mainText=;fontSize=17;labelBackgroundColor=none;whiteSpace=wrap;" parent="NKDO169QcMg4LV9zWofI-46" vertex="1">
          <mxGeometry width="550" height="450" as="geometry" />
        </mxCell>
        <mxCell id="NKDO169QcMg4LV9zWofI-48" value="" style="swimlane;shape=mxgraph.bootstrap.anchor;strokeColor=none;fillColor=none;fontColor=#666666;fontStyle=0;childLayout=stackLayout;horizontal=0;startSize=0;horizontalStack=1;resizeParent=1;resizeParentMax=0;resizeLast=0;collapsible=0;marginBottom=0;whiteSpace=wrap;html=1;perimeter=none;" parent="NKDO169QcMg4LV9zWofI-46" vertex="1">
          <mxGeometry x="256.66666666666663" y="42.45283018867924" width="283.2499999999999" height="25.471698113207545" as="geometry" />
        </mxCell>
        <mxCell id="NKDO169QcMg4LV9zWofI-49" value="&lt;blockquote style=&quot;margin: 0 0 0 40px; border: none; padding: 0px;&quot;&gt;&lt;font color=&quot;#666666&quot;&gt;Home&lt;/font&gt;&lt;/blockquote&gt;" style="text;strokeColor=none;align=center;verticalAlign=middle;spacingLeft=0;spacingRight=10;overflow=hidden;points=[[0,0.5],[1,0.5]];portConstraint=eastwest;rotatable=0;whiteSpace=wrap;html=1;shape=mxgraph.mockup.leftButton;rSize=10;fillColor=none;fontColor=#ffffff;fontSize=17;fontStyle=1;" parent="NKDO169QcMg4LV9zWofI-48" vertex="1">
          <mxGeometry width="99.91666666666664" height="25.471698113207545" as="geometry" />
        </mxCell>
        <mxCell id="NKDO169QcMg4LV9zWofI-50" value="Aircraft" style="text;strokeColor=inherit;align=center;verticalAlign=middle;spacingLeft=10;spacingRight=10;overflow=hidden;points=[[0,0.5],[1,0.5]];portConstraint=eastwest;rotatable=0;whiteSpace=wrap;html=1;rSize=5;fillColor=inherit;fontColor=inherit;fontSize=17;fontStyle=1;" parent="NKDO169QcMg4LV9zWofI-48" vertex="1">
          <mxGeometry x="99.91666666666664" width="91.66666666666663" height="25.471698113207545" as="geometry" />
        </mxCell>
        <mxCell id="NKDO169QcMg4LV9zWofI-51" value="&lt;font color=&quot;#00009a&quot;&gt;Contact&lt;/font&gt;" style="text;strokeColor=inherit;align=center;verticalAlign=middle;spacingLeft=10;spacingRight=10;overflow=hidden;points=[[0,0.5],[1,0.5]];portConstraint=eastwest;rotatable=0;whiteSpace=wrap;html=1;rSize=5;fillColor=inherit;fontColor=inherit;fontSize=17;fontStyle=1;" parent="NKDO169QcMg4LV9zWofI-48" vertex="1">
          <mxGeometry x="191.58333333333326" width="91.66666666666663" height="25.471698113207545" as="geometry" />
        </mxCell>
        <mxCell id="NKDO169QcMg4LV9zWofI-58" value="" style="group" parent="NKDO169QcMg4LV9zWofI-46" vertex="1" connectable="0">
          <mxGeometry x="18.333333333333325" y="33.96226415094339" width="100.8333333333333" height="42.45283018867924" as="geometry" />
        </mxCell>
        <mxCell id="NKDO169QcMg4LV9zWofI-59" value="" style="verticalLabelPosition=bottom;shadow=0;dashed=0;align=center;html=1;verticalAlign=top;strokeWidth=1;shape=mxgraph.mockup.graphics.simpleIcon;strokeColor=#999999;" parent="NKDO169QcMg4LV9zWofI-58" vertex="1">
          <mxGeometry width="100.8333333333333" height="42.45283018867924" as="geometry" />
        </mxCell>
        <mxCell id="NKDO169QcMg4LV9zWofI-60" value="&lt;font style=&quot;font-size: 16px;&quot;&gt;Logo&lt;/font&gt;" style="text;strokeColor=none;fillColor=none;html=1;fontSize=24;fontStyle=1;verticalAlign=middle;align=center;" parent="NKDO169QcMg4LV9zWofI-58" vertex="1">
          <mxGeometry x="4.583333333333333" y="4.245283018867919" width="91.66666666666664" height="33.96226415094339" as="geometry" />
        </mxCell>
        <mxCell id="NKDO169QcMg4LV9zWofI-80" value="" style="group" parent="NKDO169QcMg4LV9zWofI-46" vertex="1" connectable="0">
          <mxGeometry x="75" y="212" width="400" height="199" as="geometry" />
        </mxCell>
        <mxCell id="NKDO169QcMg4LV9zWofI-68" value="* First Name" style="strokeWidth=1;shadow=0;dashed=0;align=center;html=1;shape=mxgraph.mockup.forms.anchor;align=right;spacingRight=2;fontColor=#666666;" parent="NKDO169QcMg4LV9zWofI-80" vertex="1">
          <mxGeometry width="50" height="18" as="geometry" />
        </mxCell>
        <mxCell id="NKDO169QcMg4LV9zWofI-69" value="" style="strokeWidth=1;shadow=0;dashed=0;align=center;html=1;shape=mxgraph.mockup.forms.rrect;fillColor=#ffffff;rSize=0;fontColor=#666666;align=left;spacingLeft=3;strokeColor=#999999;" parent="NKDO169QcMg4LV9zWofI-80" vertex="1">
          <mxGeometry x="50" width="350" height="18" as="geometry" />
        </mxCell>
        <mxCell id="NKDO169QcMg4LV9zWofI-70" value="Last Name" style="strokeWidth=1;shadow=0;dashed=0;align=center;html=1;shape=mxgraph.mockup.forms.anchor;align=right;spacingRight=2;fontColor=#666666;" parent="NKDO169QcMg4LV9zWofI-80" vertex="1">
          <mxGeometry y="25" width="50" height="18" as="geometry" />
        </mxCell>
        <mxCell id="NKDO169QcMg4LV9zWofI-71" value="" style="strokeWidth=1;shadow=0;dashed=0;align=center;html=1;shape=mxgraph.mockup.forms.rrect;fillColor=#ffffff;rSize=0;fontColor=#666666;align=left;spacingLeft=3;strokeColor=#999999;" parent="NKDO169QcMg4LV9zWofI-80" vertex="1">
          <mxGeometry x="50" y="25" width="350" height="18" as="geometry" />
        </mxCell>
        <mxCell id="NKDO169QcMg4LV9zWofI-72" value="* Email" style="strokeWidth=1;shadow=0;dashed=0;align=center;html=1;shape=mxgraph.mockup.forms.anchor;align=right;spacingRight=2;fontColor=#666666;" parent="NKDO169QcMg4LV9zWofI-80" vertex="1">
          <mxGeometry y="50" width="50" height="18" as="geometry" />
        </mxCell>
        <mxCell id="NKDO169QcMg4LV9zWofI-73" value="" style="strokeWidth=1;shadow=0;dashed=0;align=center;html=1;shape=mxgraph.mockup.forms.rrect;fillColor=#ffffff;rSize=0;fontColor=#666666;align=left;spacingLeft=3;strokeColor=#999999;" parent="NKDO169QcMg4LV9zWofI-80" vertex="1">
          <mxGeometry x="50" y="50" width="350" height="18" as="geometry" />
        </mxCell>
        <mxCell id="NKDO169QcMg4LV9zWofI-78" value="" style="strokeWidth=1;shadow=0;dashed=0;align=center;html=1;shape=mxgraph.mockup.forms.rrect;fillColor=#ffffff;rSize=0;fontColor=#666666;align=left;spacingLeft=3;strokeColor=#999999;verticalAlign=top;whiteSpace=wrap;" parent="NKDO169QcMg4LV9zWofI-80" vertex="1">
          <mxGeometry x="50" y="74" width="350" height="86" as="geometry" />
        </mxCell>
        <mxCell id="NKDO169QcMg4LV9zWofI-79" value="* Message" style="strokeWidth=1;shadow=0;dashed=0;align=center;html=1;shape=mxgraph.mockup.forms.anchor;align=right;spacingRight=2;fontColor=#666666;" parent="NKDO169QcMg4LV9zWofI-80" vertex="1">
          <mxGeometry y="74" width="50" height="18" as="geometry" />
        </mxCell>
        <mxCell id="NKDO169QcMg4LV9zWofI-81" value="Submit" style="strokeWidth=1;shadow=0;dashed=0;align=center;html=1;shape=mxgraph.mockup.buttons.button;strokeColor=#666666;fontColor=#ffffff;mainText=;buttonStyle=round;fontSize=12;fontStyle=1;fillColor=#00009A;whiteSpace=wrap;labelBackgroundColor=none;" parent="NKDO169QcMg4LV9zWofI-46" vertex="1">
          <mxGeometry x="237.5" y="397" width="90" height="29" as="geometry" />
        </mxCell>
        <mxCell id="NKDO169QcMg4LV9zWofI-82" value="&lt;font style=&quot;font-size: 16px;&quot;&gt;Request Information&lt;/font&gt;" style="text;strokeColor=none;fillColor=none;html=1;fontSize=24;fontStyle=1;verticalAlign=middle;align=center;" parent="NKDO169QcMg4LV9zWofI-46" vertex="1">
          <mxGeometry x="60" y="110" width="150" height="25.47" as="geometry" />
        </mxCell>
        <mxCell id="NKDO169QcMg4LV9zWofI-83" value="&lt;font style=&quot;font-size: 11px;&quot;&gt;Lorem ipsum dolor sit amet, consectetur adipisicing elit, sed do eiusmod tempor incididunt ut labore et dolore magna aliqua. Excepteur sint occaecat cupidatat non proident, sunt in culpa qui officia deserunt mollit anim id est laborum.&lt;/font&gt;&lt;div style=&quot;font-size: 11px;&quot;&gt;&lt;br&gt;&lt;/div&gt;" style="text;spacingTop=-5;whiteSpace=wrap;html=1;align=left;fontSize=12;fontFamily=Helvetica;fillColor=none;strokeColor=none;" parent="NKDO169QcMg4LV9zWofI-46" vertex="1">
          <mxGeometry x="56" y="135.47000000000003" width="412.5" height="50" as="geometry" />
        </mxCell>
        <mxCell id="NKDO169QcMg4LV9zWofI-64" value="" style="endArrow=classic;html=1;rounded=0;exitX=0.5;exitY=1;exitDx=0;exitDy=0;strokeColor=#ff0000;strokeWidth=2;" parent="1" source="NKDO169QcMg4LV9zWofI-63" target="NKDO169QcMg4LV9zWofI-32" edge="1">
          <mxGeometry width="50" height="50" relative="1" as="geometry">
            <mxPoint x="610" y="410" as="sourcePoint" />
            <mxPoint x="670" y="710" as="targetPoint" />
            <Array as="points">
              <mxPoint x="444" y="130" />
              <mxPoint x="530" y="130" />
              <mxPoint x="610" y="130" />
              <mxPoint x="610" y="730" />
            </Array>
          </mxGeometry>
        </mxCell>
        <mxCell id="NKDO169QcMg4LV9zWofI-65" value="" style="rounded=1;whiteSpace=wrap;html=1;shadow=0;fillColor=none;strokeColor=#ff0000;" parent="1" vertex="1">
          <mxGeometry x="494" y="76.42000000000002" width="83" height="34" as="geometry" />
        </mxCell>
        <mxCell id="NKDO169QcMg4LV9zWofI-66" value="" style="endArrow=classic;html=1;rounded=0;strokeColor=#ff0000;strokeWidth=2;" parent="1" source="NKDO169QcMg4LV9zWofI-65" target="NKDO169QcMg4LV9zWofI-47" edge="1">
          <mxGeometry width="50" height="50" relative="1" as="geometry">
            <mxPoint x="454" y="120" as="sourcePoint" />
            <mxPoint x="600" y="741" as="targetPoint" />
            <Array as="points">
              <mxPoint x="660" y="93" />
              <mxPoint x="660" y="140" />
              <mxPoint x="660" y="270" />
            </Array>
          </mxGeometry>
        </mxCell>
      </root>
    </mxGraphModel>
  </diagram>
</mxfile>
